<svg xmlns="http://www.w3.org/2000/svg" viewBox="0 0 320 275" width="320" height="275" preserveAspectRatio="xMidYMid meet" style="width: 100%; height: 100%; transform: translate3d(0px, 0px, 0px);"><defs><clipPath id="__lottie_element_109"><rect width="320" height="275" x="0" y="0"></rect></clipPath></defs><g clip-path="url(#__lottie_element_109)"><g transform="matrix(6.659999847412109,0,0,6.659999847412109,160,137.5)" opacity="1" style="display: block;"><g opacity="1" transform="matrix(1,0,0,1,0,0)"><path stroke-linecap="round" stroke-linejoin="round" fill-opacity="0" stroke="rgb(255,255,255)" stroke-opacity="1" stroke-width="2.716" d=" M-0.9169999957084656,6.150000095367432 C-0.9169999957084656,6.150000095367432 -5.23799991607666,10.472000122070312 -5.23799991607666,10.472000122070312 M-5.23799991607666,10.472000122070312 C-5.23799991607666,10.472000122070312 -9.5600004196167,6.150000095367432 -9.5600004196167,6.150000095367432 M-5.23799991607666,10.472000122070312 C-5.23799991607666,10.472000122070312 -5.23799991607666,-1.0520000457763672 -5.23799991607666,-1.0520000457763672"></path></g></g><g transform="matrix(6.659999847412109,0,0,6.659999847412109,160,137.5)" opacity="1" style="display: block;"><g opacity="1" transform="matrix(1,0,0,1,0,0)"><path stroke-linecap="round" stroke-linejoin="round" fill-opacity="0" stroke="rgb(255,255,255)" stroke-opacity="1" stroke-width="2.716" d=" M0.9169999957084656,-5.9079999923706055 C0.9169999957084656,-5.9079999923706055 5.23799991607666,-10.229999542236328 5.23799991607666,-10.229999542236328 M5.23799991607666,-10.229999542236328 C5.23799991607666,-10.229999542236328 9.559000015258789,-5.9079999923706055 9.559000015258789,-5.9079999923706055 M5.23799991607666,-10.229999542236328 C5.23799991607666,-10.229999542236328 5.23799991607666,1.2940000295639038 5.23799991607666,1.2940000295639038"></path></g></g></g></svg>